<svg width="80" height="37" viewBox="0 0 80 37" fill="none" xmlns="http://www.w3.org/2000/svg">
<path fill-rule="evenodd" clip-rule="evenodd" d="M47.2777 1.56454L38.8235 21.0252C38.6867 21.6291 38.7414 21.9859 38.8235 22.2878L42.9549 21.2997C43.5021 17.8687 47.7975 15.4807 51.71 14.52L52.9412 17.6491L56.58 17.1276L55.2941 14.0809C58.1669 13.8338 62.1614 13.7789 67.6881 18.1432C73.2148 22.48 74.528 32.2789 74.2544 31.2085C73.9808 30.138 74.446 22.8917 69.6033 17.5119C65.3078 13.0653 61.1491 11.2263 54.0356 11.5556L49.658 0.768546L47.2777 1.56454ZM18.7141 1.56454L15.0479 20.1743L18.2763 21.7389L21.0944 8.97552L26.4022 22.1506L28.3721 20.4763L32.0109 9.27745L34.5828 22.178L38.1122 20.5037L34.446 0L30.9986 1.67433L26.7305 13.9162L21.8331 0.411721L18.7141 1.56454ZM0 4.39169L1.50479 0.795994C6.29275 0.795994 10.9166 0.795994 15.7319 0.795994L14.2271 4.39169H9.74008V20.6958H5.77291V4.39169H0ZM50.9166 11.9674C51.026 11.7478 45.8003 13.6691 45.8003 14.1358L48.7004 7.24629L50.9166 11.9674Z" fill="white"/>
<path fill-rule="evenodd" clip-rule="evenodd" d="M56.2517 16.8804C61.669 16.8804 66.0739 21.3819 66.0739 26.9264C66.0739 32.4709 61.669 36.9724 56.2517 36.9724C50.8345 36.9724 46.4296 32.4709 46.4296 26.9264C46.4296 21.3819 50.8345 16.8804 56.2517 16.8804Z" fill="white"/>
<path fill-rule="evenodd" clip-rule="evenodd" d="M46.3748 26.3225C47.6334 26.0755 48.7551 24.9776 46.9494 24.6482C46.6211 24.5933 46.8947 23.9345 47.0588 23.9071C47.9343 23.7973 50.5061 25.6089 50.5061 26.7342C50.5061 30.5495 51.8194 29.5614 53.1327 27.7498C54.6375 25.6638 55.4035 28.1615 56.2517 29.9182C56.4432 30.3299 58.249 30.9063 58.249 30.2201C58.249 29.4241 58.0027 28.6282 57.4829 28.1066C57.4829 28.1066 59.7811 27.5302 60.1094 26.8166C60.7661 25.4716 59.5075 21.1074 61.1765 24.5384C61.5321 25.252 61.9425 25.1148 62.0793 24.6756C62.1614 24.4012 62.0246 23.9071 62.052 23.7424C62.3803 21.574 64.487 23.9071 62.2435 20.6408C61.1217 18.9939 63.0643 19.5154 63.3105 20.0644C63.7209 20.8603 62.4076 18.4998 59.2339 17.3744C54.9931 15.8648 49.9316 17.9783 47.8522 21.8485C46.2654 24.8129 46.4295 25.8284 46.3748 26.3225ZM54.9931 31.2632C55.212 31.3455 55.3762 31.5102 55.5403 31.7298C55.7045 31.9494 56.0328 32.2787 56.2243 32.4434C56.5253 32.7454 56.7715 33.2394 56.7715 33.6786C56.7715 33.7609 56.8263 34.0629 56.6895 34.0629C56.6347 34.0629 56.5527 34.008 56.5253 34.008C56.4432 34.008 56.3885 34.008 56.3611 33.9531C56.3064 33.8982 56.197 33.8158 56.197 33.706L56.1149 33.459C56.0328 33.3767 55.9781 33.1571 55.9507 33.0473C55.8687 32.8003 55.6224 32.416 55.5403 32.169C55.4583 31.9494 54.9384 31.4279 54.9931 31.2632ZM55.7319 29.7535C55.7319 30.0006 55.7319 30.3574 55.7319 30.6044C55.7319 30.6593 55.8139 30.9338 55.8139 30.9338L55.896 31.071C55.9507 31.1259 56.0328 31.2906 56.0602 31.373C56.1149 31.4553 56.3611 32.2238 56.5527 32.2238C56.6895 32.2238 56.6347 31.7572 56.6347 31.62C56.6347 31.4004 56.5527 31.2083 56.4706 31.0161C56.4706 30.9612 56.3885 30.7691 56.3885 30.7142C56.3338 30.6319 56.3064 30.4123 56.2517 30.3848C56.197 30.3025 55.9507 29.7535 55.7319 29.7535ZM57.6744 32.4983C57.8386 32.416 58.0574 32.416 58.2763 32.416L58.6046 32.3611C58.6594 32.3062 58.7414 32.2239 58.8509 32.1964C58.933 32.1415 59.2339 32.0592 59.2339 32.0592C59.2339 32.0592 59.8632 31.8121 59.9453 31.8121C60.1094 31.8121 60.3557 31.867 60.3557 32.0592C60.3557 32.1964 60.3557 32.5532 60.3009 32.6081C60.2462 32.663 60.2462 32.8277 60.2462 32.8277L60.1094 33.0747C60.1094 33.1296 59.9726 33.2394 59.9726 33.2394C59.8358 33.2943 59.7264 33.5414 59.5896 33.5414C59.4254 33.5963 59.2613 33.706 59.0971 33.706C58.8509 33.706 58.4952 33.7609 58.2216 33.7609C57.8933 33.7609 57.4282 33.3492 57.3461 33.0473C57.3461 32.9649 57.2914 32.7454 57.3461 32.7179C57.4282 32.663 57.7291 32.6081 57.6744 32.4983ZM58.5773 34.6942C58.4405 34.5569 58.331 34.5295 58.249 34.4471L58.1669 34.3648C58.1122 34.3648 58.0301 34.3648 58.0027 34.3099C57.948 34.255 57.9206 34.255 57.8659 34.255C57.7018 34.255 57.9206 34.2001 57.647 34.2001C57.5923 34.2001 57.5102 34.2001 57.4829 34.2001H57.4008L57.3461 34.2825L57.2914 34.3374V34.4197L57.3734 34.502C57.3734 34.502 57.4555 34.5844 57.5102 34.5844L57.5923 34.6667L57.647 34.7216H57.7018L57.7565 34.804H57.8112H57.8659L57.9206 34.8589L57.9754 34.9138V34.9687H58.0301L58.1122 35.0236V35.0784H58.1669C58.2216 35.1333 58.249 35.2157 58.3037 35.2157H58.4405C58.4405 35.2157 58.4952 35.1333 58.5226 35.1333L58.5773 35.051V34.9961V34.9412V34.8589C58.4405 34.804 58.4405 34.7216 58.5773 34.6942ZM63.7483 23.3581C63.6936 23.8247 63.2558 24.3188 62.9001 24.5109C62.818 24.5658 62.6812 24.8403 62.6812 24.8952C62.6812 25.1148 62.736 25.1422 62.9001 25.1971C62.9822 25.1971 62.8454 25.2795 63.0369 25.2795C63.2832 25.2795 63.5841 25.2795 63.8304 25.2795C64.1313 25.2795 64.0766 24.4286 64.0492 24.2365C64.0492 24.1541 63.9945 23.9894 63.9945 23.9071C63.9945 23.8522 63.9124 23.5777 63.9124 23.5228C63.8851 23.3307 63.803 23.2758 63.7483 23.3581Z" fill="#A7A9AC"/>
<path fill-rule="evenodd" clip-rule="evenodd" d="M31.71 26.5973V31.4282H30.7524V30.742C30.3694 31.2635 30.0137 31.538 29.3024 31.538C28.5089 31.538 27.6608 31.2086 27.4966 30.3577C27.4693 30.193 27.4419 29.946 27.4419 29.5617V26.5973H28.4542V29.2049C28.4542 29.5343 28.4816 29.7813 28.5636 29.946C28.6184 30.1107 28.7552 30.2479 28.9193 30.3303C29.0835 30.4401 29.2476 30.4675 29.4939 30.4675C29.8769 30.4675 30.0137 30.3577 30.2873 30.1381C30.5609 29.9185 30.6977 29.5068 30.6977 28.8755V26.5699H31.71V26.5973ZM5.99182 30.1107L7.08621 30.1381C7.16829 30.5498 7.90701 30.7694 8.26268 30.7694C8.61836 30.7694 8.8646 30.6871 9.05612 30.5498C9.22028 30.4126 9.32971 30.2479 9.32971 30.0558C9.32971 29.946 9.30236 29.8362 9.22028 29.7539C9.1382 29.6715 9.02876 29.5892 8.83724 29.5343C8.70044 29.4794 8.42684 29.4245 7.96173 29.3147C7.38717 29.1774 6.97677 29.0128 6.7579 28.8206C6.42958 28.5461 6.26542 28.2168 6.26542 27.805C6.26542 27.558 6.3475 27.311 6.4843 27.0914C6.64846 26.8718 6.86733 26.7071 7.14093 26.5973C7.44189 26.4875 7.77021 26.4326 8.1806 26.4326C8.8646 26.4326 9.35708 26.5699 9.68539 26.8444C10.0137 27.1188 10.2052 27.4757 10.2052 27.9423L9.1382 27.9972C9.08348 27.7501 9.0014 27.558 8.83724 27.4482C8.67308 27.3384 8.4542 27.2835 8.15324 27.2835C7.85229 27.2835 7.60605 27.3384 7.41453 27.4757C7.30509 27.558 7.25037 27.6678 7.25037 27.7776C7.25037 27.8874 7.30509 27.9972 7.41453 28.0795C7.55133 28.1893 7.87965 28.2991 8.39948 28.4089C8.91932 28.5187 9.30236 28.6559 9.57595 28.7657C9.82219 28.903 10.0137 29.0677 10.1779 29.2872C10.3147 29.5068 10.3967 29.7813 10.3967 30.0832C10.3967 30.3577 10.3147 30.6322 10.1505 30.8792C9.98635 31.1263 9.74011 31.3184 9.43915 31.4282C9.1382 31.538 8.7278 31.6203 8.29004 31.6203C7.30509 31.6203 6.12862 31.1812 5.99182 30.1107ZM13.5431 29.0677C13.5431 28.5461 13.6252 28.1344 13.7894 27.7776C13.8988 27.5306 14.063 27.2835 14.2818 27.0914C14.5007 26.8993 14.7196 26.7346 14.9658 26.6522C15.2941 26.515 15.6772 26.4601 16.1149 26.4601C16.9084 26.4601 17.5377 26.6797 18.0028 27.1463C18.4679 27.6129 18.7141 28.2442 18.7141 29.0677C18.7141 29.8636 18.4679 30.5224 18.0028 30.9616C17.5377 31.4282 16.9084 31.6478 16.1149 31.6478C15.3215 31.6478 14.6922 31.4282 14.2271 30.9616C13.762 30.4675 13.5431 29.8636 13.5431 29.0677ZM14.6375 29.0128C14.6375 29.5892 14.7743 30.0009 15.0479 30.3028C15.3215 30.6047 15.6772 30.742 16.1149 30.742C16.5527 30.742 16.9084 30.6047 17.182 30.3028C17.4556 30.0009 17.5924 29.5892 17.5924 28.9853C17.5924 28.4089 17.4556 27.9697 17.182 27.6952C16.9084 27.4208 16.5527 27.2835 16.1149 27.2835C15.6772 27.2835 15.3215 27.4208 15.0479 27.7227C14.7743 28.0246 14.6375 28.4363 14.6375 29.0128ZM22.1615 31.538V25.2249H23.2558V31.5105L22.1615 31.538ZM37.4556 26.6248V27.5031H36.5527V30.1107C36.5527 30.8518 36.7442 30.6322 37.4556 30.6596V31.5929H36.5527C36.3612 31.5929 36.197 31.5654 36.0602 31.5105C35.9234 31.4556 35.814 31.3733 35.7319 31.2909C35.6498 31.2086 35.6225 31.0714 35.5951 30.9067C35.5677 30.7969 35.5677 30.5773 35.5677 30.2205V27.4757H34.9658V26.6248H35.5677V25.4445H36.6074V26.6248H37.4556ZM41.2859 31.538V26.9267H42.353V31.538H41.2859ZM75.6498 29.8911L76.6895 29.7813C76.7442 30.1107 76.881 30.3577 77.0725 30.5224C77.2641 30.6871 77.5377 30.742 77.866 30.742C78.2217 30.742 78.4679 30.6596 78.6594 30.5224C78.8236 30.3852 78.933 30.2205 78.933 30.0283C78.933 29.9185 78.9056 29.8088 78.8236 29.7264C78.7415 29.6441 78.632 29.5617 78.4405 29.5068C78.3037 29.4519 78.0301 29.397 77.565 29.2872C76.9905 29.15 76.5801 28.9853 76.3612 28.7932C76.0329 28.5187 75.8687 28.1893 75.8687 27.7776C75.8687 27.5306 75.9508 27.2835 76.0876 27.0639C76.2517 26.8444 76.4706 26.6797 76.7442 26.5699C77.0452 26.4601 77.3735 26.4052 77.7839 26.4052C78.4679 26.4052 78.9604 26.5424 79.2887 26.8169C79.617 27.0914 79.8085 27.4482 79.8085 27.9148L78.7415 27.9697C78.6868 27.7227 78.6047 27.5306 78.4405 27.4208C78.2764 27.311 78.0575 27.2561 77.7565 27.2561C77.4556 27.2561 77.2093 27.311 77.0178 27.4482C76.9084 27.5306 76.8537 27.6404 76.8537 27.7501C76.8537 27.8599 76.9084 27.9697 77.0178 28.0521C77.1546 28.1619 77.4829 28.2717 78.0028 28.3815C78.5226 28.4912 78.9056 28.6285 79.1792 28.7383C79.4255 28.8755 79.617 29.0402 79.7812 29.2598C79.918 29.4794 80 29.7539 80 30.0558C80 30.3303 79.918 30.6047 79.7538 30.8518C79.5896 31.0988 79.3434 31.2909 79.0424 31.4007C78.7415 31.5105 78.3311 31.5929 77.8933 31.5929C77.2093 31.5929 76.6895 31.4556 76.3338 31.1537C75.9234 30.8792 75.7046 30.4675 75.6498 29.8911ZM67.4693 31.538V26.7071H68.4268V27.3933C68.8099 26.8718 69.1656 26.5973 69.8769 26.5973C70.1779 26.5973 70.4788 26.6522 70.7251 26.762C70.9987 26.8718 71.1902 27.009 71.2996 27.1737C71.4364 27.3384 71.5185 27.558 71.5732 27.7776C71.6006 27.9423 71.6279 28.1893 71.6279 28.5736V31.538H70.7524V28.601C70.7524 28.2717 70.7251 28.0246 70.643 27.8599C70.5883 27.6952 70.4515 27.558 70.2873 27.4757C70.1232 27.3659 69.9043 27.3384 69.6854 27.3384C69.3024 27.3384 69.1656 27.4482 68.892 27.6678C68.6184 27.8874 68.4816 28.2991 68.4816 28.9304V31.5654H67.4693V31.538ZM41.2859 26.6248V25.1426H42.353V26.6248H41.2859Z" fill="white"/>
</svg>
