<svg width="81" height="32" viewBox="0 0 81 32" fill="none" xmlns="http://www.w3.org/2000/svg">
<path d="M62.5509 0V15.9557L62.3493 16.1248L62.1478 16.294L61.9544 16.4712L61.769 16.6484L61.5916 16.8256L61.4143 17.0108L61.245 17.1961L61.0758 17.3813V0H43.2133V14.5301H41.7382V0H23.8838V14.5542H22.4087V0H4.56234V16.5839L0 31.6295H4.00616L6.02133 24.9685H6.6017L9.93076 31.6295H14.7672L11.5429 24.9685H18.862L16.8307 31.6295H21.1996L23.2067 24.9846H24.174V24.9685H25.5523H25.6652H33.9274L31.9928 31.6134H36.4101L38.2882 24.9685H40.2711L40.3195 31.6134H44.0194L48.2754 24.9685H51.0563L49.6135 31.6134H53.9582L55.3769 24.9685H57.8757L57.8595 25.3471L57.8676 25.7337L57.8837 26.1042L57.916 26.4747L57.9402 26.6519L57.9643 26.8291L57.9966 27.0063L58.0288 27.1835L58.0691 27.3607L58.1094 27.5298L58.1578 27.699L58.2062 27.8681L58.2626 28.0373L58.319 28.1983L58.3835 28.3594L58.448 28.5125L58.5205 28.6735L58.5931 28.8266L58.6817 28.9716L58.7704 29.1246L58.8671 29.2696L58.9719 29.4065L59.0767 29.5515L59.1896 29.6803L59.3024 29.8173L59.4153 29.9461L59.5442 30.075L59.6732 30.1958L59.8344 30.3327L59.9956 30.4697L60.1649 30.5985L60.3422 30.7194L60.5196 30.8402L60.6969 30.9529L60.8823 31.0415L61.0758 31.1462L61.2612 31.2268L61.4546 31.3073L61.6481 31.3798L61.8496 31.4523L62.0511 31.5167L62.2526 31.5731L62.4541 31.6295L62.6557 31.6778L63.0667 31.7664L63.4859 31.8309L63.897 31.8872L64.3081 31.9356L64.7031 31.9678L65.09 31.9839L65.4688 32H65.8316L66.3233 31.9919L66.815 31.9839L67.3147 31.9597L67.8145 31.9356L68.3142 31.8953L68.814 31.855L69.3138 31.8067L69.8135 31.7503L70.3214 31.6859L70.8292 31.6134L71.337 31.5328L71.8448 31.4523L72.3526 31.3637L72.8605 31.259L73.3683 31.1543L73.8842 31.0335L75.4479 24.9685H80.4053V0H62.5509ZM6.21478 24.3484L6.23897 24.2598L6.29539 24.3484H6.21478ZM21.7638 15.4L21.5059 16.2457L19.128 24.0664L19.0313 24.3403H11.2205L10.6159 23.0597L19.0313 14.5462H13.6225L7.04503 21.5615L9.17305 14.5462H5.19914V0.628241H21.7638V15.4ZM26.3745 22.0126L26.2456 22.0206L26.1247 22.0287L25.9957 22.0368H25.8587H25.6813H25.5282L25.3831 22.0448H25.246L24.182 22.0368L24.6737 20.2406L24.8994 19.3466L25.4637 17.2525H25.641H25.8264L26.0037 17.2444H26.173H26.9952L27.495 17.2525L27.9544 17.2686L28.1559 17.2766L28.3494 17.2927L28.5348 17.3169L28.7041 17.3411L28.8572 17.3652L29.0023 17.4055L29.1394 17.4458L29.2603 17.4941L29.365 17.5424L29.4618 17.6068L29.5504 17.6713L29.6149 17.7518L29.6552 17.8163L29.6875 17.8807L29.7197 17.9532L29.7439 18.0337L29.76 18.1223L29.7681 18.2109V18.3156V18.4284L29.76 18.5492L29.752 18.67L29.7278 18.8069L29.7036 18.9439L29.6311 19.2258L29.5343 19.5479L29.4376 19.8137L29.3328 20.0715L29.22 20.3131L29.099 20.5386L29.0426 20.6433L28.9862 20.7481L28.9217 20.8528L28.8492 20.9414L28.7766 21.03L28.7041 21.1105L28.6154 21.191L28.5267 21.2635L28.43 21.328L28.3333 21.4005L28.2285 21.4568L28.1156 21.5213L28.0028 21.5777L27.8819 21.626L27.761 21.6743L27.632 21.7146L27.495 21.7629L27.3499 21.7951L27.1967 21.8273L27.0436 21.8596L26.8743 21.8837L26.705 21.9079L26.5277 21.924L26.3745 22.0126ZM38.4414 24.3484L40.1825 18.2109L40.247 24.3484H38.4414ZM41.0933 14.5301H36.9501L34.0967 24.3484H29.7036L29.9051 24.2678L30.1066 24.1873L30.3001 24.1067L30.4935 24.0181L30.6789 23.9295L30.8563 23.8168L31.0336 23.7121L31.2029 23.5993L31.3722 23.4785L31.5334 23.3577L31.6865 23.2369L31.8397 23.0999L31.9848 22.9711L32.1218 22.8261L32.2588 22.6892L32.3878 22.5361L32.5168 22.3911L32.6377 22.2301L32.7505 22.077L32.8634 21.9079L32.9682 21.7387L33.0649 21.5696L33.1616 21.3924L33.2503 21.2071L33.339 21.0219L33.4115 20.8366L33.476 20.6433L33.5405 20.442L33.5888 20.2406L33.6453 20.0393L33.6856 19.8218L33.7259 19.6124L33.7823 19.2741L33.8307 18.9519L33.8629 18.6459L33.8871 18.364L33.8952 18.0821L33.8871 17.8243L33.879 17.5666L33.8468 17.3249L33.8145 17.0994L33.7581 16.8739L33.7017 16.6645L33.613 16.4631L33.5163 16.2698L33.4115 16.0765L33.2906 15.8993L33.1536 15.7302L33.0407 15.6094L32.9279 15.4885L32.807 15.3838L32.678 15.2952L32.541 15.2066L32.4039 15.1261L32.2588 15.0536L32.1137 14.9892L31.9606 14.9247L31.8074 14.8764L31.6462 14.8281L31.485 14.7798L31.3157 14.7395L31.1465 14.7073L30.9772 14.6751L30.7999 14.6509L30.4371 14.6026L30.0744 14.5784L29.7036 14.5542L29.3247 14.5462H28.559H27.8013H27.5675H27.1403H26.6164H26.0279H25.4717H24.9881H24.6496H24.5206V0.628241H41.0933V14.5301ZM51.1611 24.3484H48.6704L52.4428 18.4606L51.1611 24.3484ZM60.4228 14.8039L60.4148 18.2109L60.2052 18.5089L60.0117 18.815L59.8183 19.1211L59.641 19.4271L59.4717 19.7332L59.3024 20.0473L59.1573 20.3534L59.0122 20.6595L58.8752 20.9575L58.7543 21.2635L58.6334 21.5615L58.5286 21.8434L58.4319 22.1253L58.3432 22.3992L58.2706 22.665L58.2062 22.9308L58.1659 23.108L58.1255 23.2932L58.0852 23.4704L58.053 23.6557L58.0208 23.8329L57.9966 24.0101L57.9563 24.1631L57.9402 24.3484H55.5058L57.5855 14.5542L50.5727 14.5462L44.3015 24.3484H43.842V0.628241H60.4228V14.8039ZM69.9747 28.3594L69.6281 28.4158L69.2735 28.4641L68.9188 28.5125L68.5722 28.5527L68.2256 28.5849L67.879 28.6091L67.5404 28.6252H67.2019H66.9842L66.7666 28.6172L66.557 28.6011L66.3474 28.5769L66.1459 28.5447L65.9525 28.5125L65.759 28.4722L65.5736 28.4239L65.3963 28.3675L65.2189 28.3111L65.0497 28.2386L64.8885 28.1661L64.7272 28.0775L64.5741 27.9889L64.4048 27.8681L64.2678 27.7634L64.1308 27.6426L64.0098 27.5137L63.8889 27.3848L63.7761 27.2399L63.6713 27.0949L63.5746 26.9338L63.4859 26.7727L63.3972 26.6036L63.3327 26.4264L63.2763 26.2331L63.228 26.0398L63.1796 25.8384L63.1474 25.629L63.1232 25.4115L63.1071 25.186L63.099 24.9524H70.8211L69.9747 28.3594ZM79.7765 24.3484H75.6011L76.2863 21.6099H67.9193L67.2341 24.3484H63.1877V23.7845L63.236 23.551L63.2763 23.3174L63.3247 23.0677L63.3731 22.818L63.4456 22.5442L63.5181 22.2703L63.6068 21.9965L63.7035 21.7307L63.8083 21.4649L63.9212 21.1991L64.0421 20.9414L64.163 20.6836L64.3 20.4259L64.4371 20.1842L64.5822 19.9346L64.7434 19.701L64.9046 19.4674L65.0658 19.2419L65.2431 19.0244L65.4285 18.815L65.622 18.6136L65.8154 18.4284L66.025 18.2431L66.2346 18.0659L66.4522 17.9049L66.686 17.7518L66.9198 17.6149L67.1696 17.486L67.4276 17.3652L67.6936 17.2605L67.9676 17.18L68.2498 17.1155L68.5399 17.0592L68.8382 17.0189L69.1445 16.9947L69.4589 16.9867L69.7087 16.9947L69.9586 17.0108L70.2085 17.043L70.4423 17.0914L70.5632 17.1236L70.676 17.1558L70.7889 17.188L70.8937 17.2363L70.9985 17.2766L71.1032 17.333L71.2 17.3894L71.2967 17.4458L71.3854 17.5182L71.474 17.5907L71.5466 17.6632L71.6191 17.7518L71.6836 17.8324L71.74 17.9371L71.7884 18.0498L71.8368 18.1626L71.8771 18.2834L71.9093 18.4123L71.9335 18.5412L71.9577 18.6861L71.9657 18.8311V18.9841V19.1452L71.9496 19.3144H76.9392L77.0117 18.968L77.0762 18.5734L77.1084 18.364L77.1246 18.1384L77.1407 17.9129V17.6391L77.1326 17.3974L77.1084 17.1477L77.0843 17.0269L77.0681 16.8981L77.0359 16.7692L77.0037 16.6403L76.9634 16.5034L76.923 16.3745L76.8747 16.2457L76.8183 16.1168L76.7618 15.9879L76.6893 15.859L76.6167 15.7302L76.4958 15.6255L76.391 15.4885L76.2782 15.3597L76.1654 15.2308L76.0444 15.11L75.9155 14.9892L75.7784 14.8764L75.6414 14.7717L75.4963 14.667L75.3432 14.5623L75.19 14.4818L75.0288 14.4012L74.8595 14.3207L74.6902 14.2482L74.5129 14.1757L74.3275 14.1113L74.1421 14.0468L73.9567 13.9904L73.7552 13.9421L73.5617 13.8938L73.3522 13.8455L73.1426 13.8052L72.933 13.7649L72.7154 13.7327L72.4897 13.7085L72.0222 13.6602L71.5466 13.6199L71.0468 13.6038L70.539 13.5958L70.1601 13.6038L69.7652 13.6119L69.346 13.636L68.9107 13.6683L68.4593 13.7166L67.9999 13.773L67.5324 13.8455L67.0568 13.9502L66.823 13.9985L66.5731 14.0549L66.3394 14.1193L66.0895 14.1837L65.8396 14.2562L65.5897 14.3368L65.3399 14.4173L65.1061 14.5059L64.8562 14.6106L64.6063 14.7234L64.3726 14.8361L64.1227 14.957L63.8889 15.0858L63.6552 15.2228L63.4214 15.3597L63.1877 15.5127V0.628241H79.7846L79.7765 24.3484Z" fill="white"/>
</svg>
