<svg width="101" height="40" viewBox="0 0 101 40" fill="none" xmlns="http://www.w3.org/2000/svg">
<path d="M78.1886 0V19.9446L77.9367 20.1561L77.6848 20.3675L77.443 20.589L77.2112 20.8105L76.9895 21.032L76.7679 21.2635L76.5563 21.4951L76.3447 21.7267V0H54.0166V18.1626H52.1727V0H29.8547V18.1928H28.0109V0H5.70293V20.7299L0 39.5369H5.0077L7.52666 31.2107H8.25212L12.4134 39.5369H18.459L14.4286 31.2107H23.5775L21.0384 39.5369H26.4995L29.0084 31.2308H30.2175V31.2107H31.9404H32.0815H42.4092L39.991 39.5167H45.5126L47.8603 31.2107H50.3389L50.3994 39.5167H55.0242L60.3442 31.2107H63.8204L62.0168 39.5167H67.4477L69.2211 31.2107H72.3446L72.3244 31.6839L72.3345 32.1671L72.3547 32.6303L72.395 33.0934L72.4252 33.3149L72.4554 33.5364L72.4957 33.7579L72.536 33.9794L72.5864 34.2009L72.6368 34.4123L72.6972 34.6237L72.7577 34.8351L72.8282 35.0466L72.8988 35.2479L72.9794 35.4493L73.06 35.6406L73.1507 35.8419L73.2413 36.0332L73.3522 36.2145L73.463 36.4057L73.5839 36.587L73.7149 36.7581L73.8459 36.9393L73.9869 37.1004L74.128 37.2716L74.2691 37.4327L74.4303 37.5938L74.5915 37.7448L74.793 37.9159L74.9945 38.0871L75.2061 38.2482L75.4278 38.3992L75.6495 38.5502L75.8711 38.6912L76.1029 38.8019L76.3447 38.9328L76.5764 39.0335L76.8183 39.1342L77.0601 39.2248L77.312 39.3154L77.5639 39.3959L77.8158 39.4664L78.0677 39.5369L78.3196 39.5973L78.8334 39.708L79.3574 39.7886L79.8712 39.8591L80.3851 39.9195L80.8788 39.9597L81.3625 39.9799L81.836 40H82.2894L82.9041 39.9899L83.5187 39.9799L84.1434 39.9497L84.7681 39.9195L85.3928 39.8691L86.0175 39.8188L86.6422 39.7584L87.2669 39.6879L87.9017 39.6073L88.5365 39.5167L89.1712 39.4161L89.806 39.3154L90.4408 39.2046L91.0756 39.0737L91.7104 38.9429L92.3552 38.7918L94.3099 31.2107H100.507V0H78.1886ZM7.76848 30.4354L7.79871 30.3247L7.86924 30.4354H7.76848ZM27.2048 19.2499L26.8824 20.3071L23.91 30.0831L23.7891 30.4254H14.0256L13.2699 28.8246L23.7891 18.1827H17.0282L8.80629 26.9519L11.4663 18.1827H6.49892V0.785301H27.2048V19.2499ZM32.9682 27.5157L32.807 27.5258L32.6558 27.5359L32.4946 27.5459H32.3233H32.1017H31.9102L31.7288 27.556H31.5576L30.2275 27.5459L30.8422 25.3008L31.1243 24.1832L31.8296 21.5656H32.0513H32.283L32.5047 21.5555H32.7163H33.744L34.3687 21.5656L34.943 21.5857L35.1949 21.5958L35.4368 21.6159L35.6685 21.6461L35.8801 21.6763L36.0715 21.7065L36.2529 21.7569L36.4242 21.8072L36.5753 21.8676L36.7063 21.928L36.8272 22.0086L36.9381 22.0891L37.0187 22.1898L37.069 22.2703L37.1093 22.3509L37.1497 22.4415L37.1799 22.5422L37.2 22.6529L37.2101 22.7637V22.8945V23.0355L37.2 23.1865L37.19 23.3375L37.1597 23.5087L37.1295 23.6798L37.0388 24.0322L36.9179 24.4349L36.797 24.7672L36.666 25.0894L36.5249 25.3914L36.3738 25.6733L36.3033 25.8042L36.2327 25.9351L36.1521 26.0659L36.0615 26.1767L35.9708 26.2874L35.8801 26.3881L35.7693 26.4888L35.6584 26.5794L35.5375 26.66L35.4166 26.7506L35.2856 26.821L35.1446 26.9016L35.0035 26.9721L34.8524 27.0325L34.7012 27.0929L34.54 27.1432L34.3687 27.2036L34.1873 27.2439L33.9959 27.2842L33.8045 27.3244L33.5929 27.3546L33.3813 27.3848L33.1596 27.405L32.9682 27.5157ZM48.0517 30.4354L50.2281 22.7637L50.3087 30.4354H48.0517ZM51.3667 18.1626H46.1877L42.6208 30.4354H37.1295L37.3814 30.3348L37.6333 30.2341L37.8751 30.1334L38.1169 30.0227L38.3487 29.9119L38.5703 29.771L38.792 29.6401L39.0036 29.4991L39.2152 29.3481L39.4167 29.1971L39.6082 29.0461L39.7996 28.8749L39.981 28.7138L40.1523 28.5326L40.3235 28.3614L40.4848 28.1701L40.646 27.9889L40.7971 27.7876L40.9382 27.5963L41.0792 27.3848L41.2102 27.1734L41.3311 26.962L41.452 26.7405L41.5629 26.5089L41.6737 26.2774L41.7644 26.0458L41.845 25.8042L41.9256 25.5525L41.9861 25.3008L42.0566 25.0491L42.107 24.7772L42.1573 24.5155L42.2279 24.0926L42.2883 23.6899L42.3286 23.3073L42.3589 22.9549L42.3689 22.6026L42.3589 22.2804L42.3488 21.9582L42.3085 21.6562L42.2682 21.3743L42.1976 21.0924L42.1271 20.8306L42.0163 20.5789L41.8954 20.3373L41.7644 20.0956L41.6132 19.8742L41.442 19.6627L41.3009 19.5117L41.1598 19.3607L41.0087 19.2298L40.8475 19.1191L40.6762 19.0083L40.5049 18.9076L40.3235 18.817L40.1422 18.7365L39.9507 18.6559L39.7593 18.5955L39.5578 18.5351L39.3563 18.4747L39.1447 18.4244L38.9331 18.3841L38.7215 18.3438L38.4998 18.3136L38.0464 18.2532L37.593 18.223L37.1295 18.1928L36.6559 18.1827H35.6987H34.7516H34.4594H33.9254H33.2704H32.5349H31.8397H31.2351H30.8119H30.6507V0.785301H51.3667V18.1626ZM63.9514 30.4354H60.838L65.5535 23.0758L63.9514 30.4354ZM75.5285 18.5049L75.5185 22.7637L75.2565 23.1362L75.0147 23.5188L74.7729 23.9013L74.5512 24.2839L74.3396 24.6665L74.128 25.0591L73.9466 25.4417L73.7653 25.8243L73.594 26.1968L73.4428 26.5794L73.2917 26.9519L73.1607 27.3043L73.0398 27.6567L72.929 27.999L72.8383 28.3312L72.7577 28.6635L72.7073 28.885L72.6569 29.1165L72.6066 29.338L72.5663 29.5696L72.5259 29.7911L72.4957 30.0126L72.4453 30.2039L72.4252 30.4354H69.3823L71.9819 18.1928L63.2159 18.1827L55.3769 30.4354H54.8025V0.785301H75.5285V18.5049ZM87.4684 35.4493L87.0352 35.5198L86.5918 35.5802L86.1485 35.6406L85.7152 35.6909L85.282 35.7312L84.8487 35.7614L84.4255 35.7815H84.0023H83.7303L83.4582 35.7715L83.1963 35.7513L82.9343 35.7211L82.6824 35.6808L82.4406 35.6406L82.1988 35.5902L81.967 35.5298L81.7453 35.4594L81.5237 35.3889L81.3121 35.2983L81.1106 35.2077L80.909 35.0969L80.7176 34.9862L80.506 34.8351L80.3347 34.7043L80.1634 34.5532L80.0123 34.3922L79.8612 34.2311L79.7201 34.0498L79.5891 33.8686L79.4682 33.6673L79.3574 33.4659L79.2465 33.2545L79.1659 33.033L79.0954 32.7913L79.035 32.5497L78.9745 32.298L78.9342 32.0362L78.904 31.7644L78.8838 31.4825L78.8737 31.1905H88.5264L87.4684 35.4493ZM99.7207 30.4354H94.5014L95.3578 27.0123H84.8991L84.0426 30.4354H78.9846V29.7307L79.045 29.4387L79.0954 29.1467L79.1559 28.8346L79.2163 28.5225L79.307 28.1802L79.3977 27.8379L79.5085 27.4956L79.6294 27.1634L79.7604 26.8311L79.9015 26.4989L80.0526 26.1767L80.2037 25.8545L80.375 25.5323L80.5463 25.2303L80.7277 24.9182L80.9292 24.6262L81.1307 24.3343L81.3322 24.0524L81.5539 23.7805L81.7857 23.5188L82.0275 23.2671L82.2693 23.0355L82.5313 22.8039L82.7932 22.5824L83.0653 22.3811L83.3575 22.1898L83.6497 22.0186L83.962 21.8575L84.2845 21.7065L84.617 21.5756L84.9595 21.475L85.3122 21.3944L85.6749 21.3239L86.0477 21.2736L86.4306 21.2434L86.8236 21.2333L87.1359 21.2434L87.4483 21.2635L87.7606 21.3038L88.0528 21.3642L88.204 21.4045L88.345 21.4448L88.4861 21.485L88.6171 21.5454L88.7481 21.5958L88.879 21.6662L89 21.7367L89.1209 21.8072L89.2317 21.8978L89.3425 21.9884L89.4332 22.079L89.5239 22.1898L89.6045 22.2905L89.675 22.4213L89.7355 22.5623L89.796 22.7032L89.8463 22.8543L89.8866 23.0154L89.9169 23.1764L89.9471 23.3577L89.9572 23.5389V23.7302V23.9315L89.937 24.143H96.174L96.2646 23.71L96.3453 23.2167L96.3856 22.9549L96.4057 22.673L96.4259 22.3911V22.0488L96.4158 21.7468L96.3856 21.4347L96.3553 21.2837L96.3352 21.1226L96.2949 20.9615L96.2546 20.8004L96.2042 20.6292L96.1538 20.4682L96.0934 20.3071L96.0228 20.146L95.9523 19.9849L95.8616 19.8238L95.7709 19.6627L95.6198 19.5318L95.4888 19.3607L95.3477 19.1996L95.2067 19.0385L95.0555 18.8875L94.8943 18.7365L94.723 18.5955L94.5518 18.4646L94.3704 18.3338L94.1789 18.2029L93.9875 18.1022L93.786 18.0015L93.5744 17.9008L93.3628 17.8102L93.1411 17.7196L92.9094 17.6391L92.6776 17.5585L92.4459 17.488L92.194 17.4276L91.9522 17.3672L91.6902 17.3068L91.4282 17.2565L91.1663 17.2061L90.8942 17.1659L90.6121 17.1357L90.0277 17.0753L89.4332 17.0249L88.8085 17.0048L88.1737 16.9947L87.7002 17.0048L87.2065 17.0149L86.6825 17.0451L86.1384 17.0853L85.5742 17.1457L84.9998 17.2162L84.4154 17.3068L83.821 17.4377L83.5288 17.4981L83.2164 17.5686L82.9242 17.6491L82.6119 17.7297L82.2995 17.8203L81.9872 17.921L81.6748 18.0216L81.3826 18.1324L81.0703 18.2633L80.7579 18.4042L80.4657 18.5452L80.1534 18.6962L79.8612 18.8573L79.569 19.0284L79.2768 19.1996L78.9846 19.3909V0.785301H99.7307L99.7207 30.4354Z" fill="#003087"/>
</svg>
