<svg width="80" height="37" viewBox="0 0 80 37" fill="none" xmlns="http://www.w3.org/2000/svg">
<path d="M47.0754 1.56793L38.6612 21.0213C38.5283 21.6359 38.583 21.9747 38.6612 22.2741L42.7666 21.2971C43.314 17.8618 47.5837 15.4902 51.4936 14.5132L52.7213 17.6491L56.3497 17.129L55.0594 14.0877C57.9215 13.8356 61.9096 13.7883 67.4147 18.1376C72.9199 22.4868 74.218 32.2647 73.9521 31.201C73.6862 30.1374 74.132 22.8886 69.3228 17.5072C65.061 13.0556 60.893 11.2198 53.8239 11.5349L49.4604 0.732751L47.0754 1.56793ZM18.6268 1.56793L14.9984 20.1861L18.2124 21.754L21.0119 8.99787L26.3059 22.1795L28.2765 20.5092L31.9127 9.32091L34.462 22.211L37.9731 20.5328L34.2978 0L30.8727 1.67036L26.6187 13.9065L21.7469 0.417589L18.6268 1.56793ZM0 4.38863L1.50923 0.787905H15.6709L14.1617 4.39651H9.70441V20.714H5.76321V4.38863H0ZM50.7116 11.9761C50.8133 11.7477 45.6287 13.678 45.6209 14.1508L48.5142 7.24872L50.7116 11.9761Z" fill="#279DD8"/>
<path d="M56.0291 16.8769C61.4326 16.8769 65.8117 21.3837 65.8117 26.9384C65.8117 32.4932 61.4326 37 56.0291 37C50.6256 37 46.2465 32.4932 46.2465 26.9384C46.2465 21.3837 50.6256 16.8769 56.0291 16.8769Z" fill="#9D9FA2"/>
<path d="M46.1917 26.3397C47.4585 26.1033 48.569 24.9845 46.7704 24.6614C46.4341 24.5984 46.7235 23.9366 46.8799 23.9208C47.7401 23.8184 50.3128 25.6306 50.3128 26.7415C50.3128 30.5628 51.6265 29.5701 52.9324 27.75C54.426 25.6778 55.1845 28.1676 56.0447 29.9089C56.2402 30.3107 58.0231 30.8859 58.0231 30.2162C58.0231 29.4125 57.7885 28.6325 57.2568 28.0967C57.2568 28.0967 59.5323 27.5294 59.8842 26.7967C60.5333 25.4493 59.2978 21.1001 60.9477 24.5196C61.2918 25.2287 61.7063 25.0948 61.847 24.6457C61.933 24.3778 61.7845 23.8893 61.8157 23.7159C62.152 21.5571 64.2242 23.8893 62.0034 20.6195C60.8774 18.9649 62.8089 19.5007 63.0747 20.0364C63.4735 20.8401 62.1833 18.4606 59.0162 17.3339C54.7857 15.829 49.7576 17.9406 47.6775 21.8171C46.0744 24.8269 46.2386 25.8275 46.1917 26.3397ZM54.7623 31.272C54.9734 31.3586 55.1376 31.5241 55.3096 31.7368C55.4817 31.9495 55.8101 32.2883 55.9822 32.4538C56.2793 32.7532 56.5295 33.2575 56.5295 33.6829C56.5295 33.7696 56.5686 34.0611 56.4435 34.0611C56.4044 34.0611 56.3184 34.0217 56.2793 34.0217C56.1933 34.0217 56.1542 34.0217 56.1151 33.9823C56.076 33.9429 55.9431 33.8563 55.9431 33.7302L55.857 33.4781C55.771 33.3914 55.7319 33.1787 55.685 33.0526C55.599 32.8005 55.3487 32.4223 55.2627 32.1623C55.2236 31.9496 54.7153 31.4374 54.7623 31.272ZM55.513 29.7513V30.5944C55.513 30.6337 55.599 30.9332 55.599 30.9332L55.685 31.0592C55.7476 31.1538 55.8101 31.2483 55.857 31.3586C55.8961 31.4453 56.1464 32.2017 56.3575 32.2017C56.4826 32.2017 56.4435 31.7368 56.4435 31.6108C56.4357 31.4059 56.3731 31.201 56.2793 31.0198C56.2793 30.9804 56.1933 30.7677 56.1933 30.7204C56.1542 30.6337 56.1073 30.421 56.0682 30.3816C55.9743 30.2949 55.7241 29.7434 55.513 29.7513ZM57.4445 32.4932C57.6087 32.4065 57.8198 32.4065 58.0309 32.4065L58.3672 32.3671C58.4376 32.2883 58.5236 32.2332 58.6253 32.1938C58.7504 32.1465 58.8755 32.0993 59.0006 32.0677C59.0006 32.0677 59.6262 31.8156 59.7122 31.8156C59.8842 31.8156 60.1345 31.855 60.1345 32.0677C60.1345 32.1938 60.1345 32.572 60.0954 32.6193C60.0563 32.6665 60.0563 32.832 60.0563 32.832L59.9312 33.0841C59.9312 33.1235 59.806 33.2575 59.806 33.2575C59.6809 33.2969 59.5558 33.5569 59.4307 33.5569C59.2587 33.5963 59.0944 33.7302 58.9302 33.7302C58.68 33.7302 58.3437 33.7696 58.0466 33.7696C57.7103 33.7696 57.249 33.3441 57.1629 33.0526C57.1629 32.9659 57.1238 32.7532 57.1629 32.7138C57.202 32.6744 57.4914 32.6193 57.4445 32.4932ZM58.3203 34.6915C58.1952 34.5654 58.07 34.5181 57.984 34.4393L57.898 34.3527C57.8355 34.3605 57.7807 34.3448 57.7338 34.3133C57.7025 34.2817 57.6556 34.266 57.6087 34.2739C57.4445 34.2739 57.6478 34.2345 57.3975 34.2345H57.1473L57.1082 34.3211L57.0691 34.3605V34.4472L57.1551 34.5339C57.1864 34.5733 57.2333 34.6048 57.2802 34.6205L57.3663 34.7072L57.4054 34.7466H57.4445L57.4836 34.8333H57.5696L57.6087 34.8727L57.6478 34.9121V34.9515H57.6869L57.7729 34.9909V35.0303H57.812C57.8511 35.0697 57.898 35.1563 57.9371 35.1563H58.0622C58.0779 35.1169 58.1091 35.0854 58.1482 35.0697L58.1873 34.983V34.8569C58.1952 34.786 58.2499 34.7072 58.3203 34.6915ZM63.4814 23.3693C63.4423 23.8341 62.9809 24.3384 62.6446 24.5117C62.5586 24.5511 62.4335 24.8505 62.4335 24.8899C62.4335 25.1027 62.4726 25.1421 62.6446 25.1893C62.7307 25.1893 62.6055 25.276 62.7698 25.276H63.5674C63.8645 25.276 63.8176 24.4329 63.7785 24.2202C63.7785 24.1335 63.7394 23.9681 63.7394 23.8814C63.7394 23.842 63.6534 23.5426 63.6534 23.5032C63.6143 23.322 63.5283 23.2826 63.4814 23.3693Z" fill="#F6F5C2"/>
<path d="M31.5765 26.5918V31.4295H30.6224V30.744C30.2471 31.2719 29.8796 31.5398 29.1758 31.5398C28.386 31.5398 27.5492 31.201 27.3694 30.3658C27.3303 30.0979 27.3147 29.8379 27.3225 29.57V26.5918H28.3469V29.2076C28.3469 29.5385 28.3781 29.7907 28.4485 29.9561C28.5189 30.1216 28.644 30.2634 28.8082 30.3501C28.9803 30.4525 29.168 30.5077 29.3713 30.4998C29.7388 30.4998 29.8796 30.3895 30.1533 30.1689C30.4269 29.9482 30.5521 29.5228 30.5521 28.9082V26.5996H31.5765V26.5918ZM5.9587 30.1137L7.06129 30.1452C7.13949 30.5628 7.86674 30.7755 8.21863 30.7755C8.57052 30.7755 8.82858 30.7046 9.00061 30.5707C9.17265 30.4367 9.26649 30.2713 9.26649 30.0901C9.26649 29.9798 9.22739 29.8695 9.15701 29.7907C9.04753 29.6882 8.91459 29.6094 8.77384 29.57C8.64872 29.5307 8.35939 29.4519 7.91366 29.3494C7.34281 29.2155 6.93618 29.05 6.70158 28.8531C6.38879 28.6088 6.20893 28.2385 6.20893 27.8445C6.20893 27.5845 6.28713 27.3403 6.43571 27.1275C6.59992 26.899 6.83452 26.7178 7.10039 26.6233C7.43665 26.4972 7.78854 26.4421 8.14825 26.4499C8.81294 26.4499 9.32122 26.5839 9.65748 26.8597C9.99373 27.1275 10.1892 27.5294 10.1892 27.9627L9.11791 28.01C9.07099 27.75 8.96933 27.5688 8.82076 27.4585C8.67218 27.3482 8.4454 27.293 8.14043 27.293C7.83546 27.293 7.58522 27.356 7.40537 27.4742C7.29589 27.5373 7.23333 27.6554 7.23333 27.7815C7.23333 27.8997 7.29589 28.0179 7.38973 28.0888C7.52266 28.1912 7.8511 28.3094 8.37503 28.4276C8.89895 28.5458 9.28213 28.664 9.53236 28.79C9.76696 28.9003 9.97027 29.0815 10.1188 29.3022C10.416 29.7985 10.4004 30.421 10.0797 30.9016C9.89989 31.1616 9.64966 31.3507 9.36032 31.461C8.99279 31.595 8.59398 31.658 8.20299 31.6422C7.28025 31.6186 6.08382 31.1853 5.9587 30.1137ZM13.4814 29.0579C13.4814 28.5458 13.5596 28.1203 13.7238 27.7736C13.8489 27.5136 14.0131 27.2851 14.2164 27.0881C14.4119 26.8912 14.6465 26.7415 14.9046 26.639C15.2721 26.4972 15.6631 26.4342 16.0541 26.4421C16.8361 26.4421 17.4617 26.6706 17.9309 27.1275C18.4 27.5845 18.6346 28.2227 18.6346 29.0343C18.6346 29.8458 18.4 30.4761 17.9309 30.9331C17.4617 31.3901 16.8361 31.6186 16.0619 31.6186C15.2721 31.6186 14.6387 31.3901 14.1773 30.9331C13.716 30.4761 13.4736 29.8537 13.4814 29.0579ZM14.584 29.0264C14.584 29.5937 14.7247 30.027 14.9984 30.3186C15.5849 30.9016 16.5233 30.9016 17.1098 30.3186C17.3835 30.027 17.5164 29.5937 17.5242 29.0106C17.5242 28.4276 17.3913 28.0021 17.1254 27.7264C16.8595 27.4427 16.4998 27.3009 16.0619 27.3009C15.624 27.3009 15.2643 27.4427 14.9906 27.7342C14.7169 28.0258 14.584 28.4433 14.584 29.0264ZM22.0754 31.5319V25.2366H23.1467V31.5241L22.0754 31.5319ZM37.2928 26.6469V27.5215H36.4013V30.1373C36.4013 30.878 36.5968 30.6652 37.2928 30.6968V31.6186H36.3778C36.2058 31.6186 36.0416 31.595 35.8774 31.5319C35.7522 31.4847 35.635 31.4137 35.5568 31.3034C35.4786 31.1931 35.4316 31.0592 35.416 30.9252C35.3925 30.7046 35.3769 30.4761 35.3847 30.2476V27.5136H34.7904V26.639H35.3847V25.4651H36.4091V26.639L37.2928 26.6469ZM41.1088 31.5319V26.9306H42.1801V31.5319H41.1088ZM75.3362 29.901L76.3763 29.8064C76.4388 30.1373 76.5639 30.3816 76.7594 30.5392C76.9549 30.6968 77.213 30.7755 77.5336 30.7755C77.8777 30.7755 78.1435 30.7046 78.3156 30.5707C78.4798 30.4604 78.5736 30.2792 78.5815 30.0901C78.5815 29.9798 78.5424 29.8695 78.472 29.7907C78.3625 29.6882 78.2296 29.6094 78.0888 29.57C77.9637 29.5307 77.6744 29.4519 77.2286 29.3494C76.6578 29.2155 76.2511 29.05 76.0165 28.8531C75.7038 28.6088 75.5239 28.2385 75.5239 27.8445C75.5239 27.5845 75.6021 27.3403 75.7585 27.1275C75.9227 26.899 76.1573 26.7178 76.4232 26.6233C76.7594 26.4972 77.1113 26.4421 77.471 26.4499C78.1357 26.4499 78.644 26.5918 78.9803 26.8597C79.3165 27.1275 79.5042 27.5294 79.512 27.9627L78.4407 28.01C78.3938 27.75 78.2999 27.5688 78.1435 27.4585C77.9871 27.3482 77.7682 27.293 77.4632 27.293C77.1582 27.293 76.908 27.356 76.7282 27.4742C76.6187 27.5373 76.5561 27.6554 76.5561 27.7815C76.5561 27.8997 76.6109 28.0179 76.7125 28.0888C76.8454 28.1991 77.1739 28.3094 77.6978 28.4276C78.2217 28.5458 78.6049 28.664 78.8551 28.79C79.0897 28.9003 79.2931 29.0815 79.4416 29.3022C79.5902 29.5385 79.6606 29.8222 79.6528 30.0979C79.6528 30.3895 79.5667 30.6652 79.3947 30.9016C79.2149 31.1616 78.9646 31.3507 78.6753 31.461C78.3078 31.595 77.9089 31.658 77.518 31.6422C76.8454 31.6422 76.3293 31.4925 75.9696 31.201C75.6099 30.9095 75.3988 30.4604 75.3362 29.901ZM67.2036 31.5398V26.7021H68.1576V27.3876C68.533 26.8518 68.9005 26.5918 69.6043 26.5918C69.8936 26.5918 70.183 26.639 70.4488 26.7493C70.6756 26.8281 70.8789 26.9778 71.0275 27.1669C71.1604 27.3482 71.2543 27.553 71.3012 27.7736C71.3403 28.0415 71.3559 28.3015 71.3481 28.5694V31.5477H70.4801V28.6009C70.4801 28.27 70.4488 28.0179 70.3785 27.8524C70.3081 27.687 70.183 27.5451 70.0187 27.4585C69.8311 27.356 69.6277 27.3009 69.4166 27.3088C69.0491 27.3088 68.9083 27.4191 68.6346 27.6397C68.3609 27.8603 68.2358 28.2858 68.2358 28.9003V31.5398H67.2036ZM41.1088 26.6154V25.1263H42.1801V26.6154H41.1088Z" fill="white"/>
</svg>
